<svg width="107" height="30" viewBox="0 0 107 30" fill="none" xmlns="http://www.w3.org/2000/svg">
<path d="M27.6997 20.5109V19.8842H35.0343C35.0724 22.2666 36.2436 23.8295 38.0779 23.8295C39.6023 23.8346 40.842 22.6066 40.8471 21.0843C40.8471 21.0741 40.8471 21.064 40.8471 21.0564C40.8471 19.6711 39.6912 18.7526 38.2025 18.0092L39.9046 12.166L40.2221 12.303C46.5812 15.0381 48.1817 17.3419 48.1817 21.1325C48.1817 26.7194 44.3582 30 38.116 30C31.8332 30.0025 27.6997 26.7219 27.6997 20.5109Z" fill="white"/>
<path d="M85.7236 29.4577L94.1507 0.548828H101.706L92.0319 29.4577H85.7236Z" fill="white"/>
<path d="M84.4229 29.4577L74.7866 0.548828H82.355L87.5808 18.7812L84.4687 29.4577H84.4229Z" fill="white"/>
<path d="M65.5013 29.4577L58.8298 20.1208H58.6138V29.4577H51.1929V0.548828H58.6114V15.0616H58.7535V15.0819C58.7535 15.0819 62.1452 15.0616 62.4501 15.0261L66.0932 19.6108L66.0881 19.6134L68.5678 22.7265L70.0464 24.5888L70.049 24.5863L73.9284 29.4577H65.5013Z" fill="white"/>
<path d="M8.57426 29.4577V22.9726H10.688C14.9409 22.9726 17.5932 20.3162 17.5932 15.0413C17.5932 9.88573 14.9791 7.03391 10.7262 7.03391H8.57178V0.548828H9.82928C13.4191 0.548828 16.2645 1.17298 18.2944 2.30711C22.3898 4.65148 24.966 9.10427 24.966 15.0033C24.966 24.5355 19.3488 29.4577 10.3374 29.4577H8.57426Z" fill="white"/>
<path d="M7.3778 0.548828H0V29.4577H7.3778V0.548828Z" fill="white"/>
<path d="M63.7368 14.7288C65.3018 14.1631 66.2037 12.9021 66.2037 10.9383C66.2037 8.43659 64.3313 7.03098 61.562 7.03098H59.8091V0.545898H61.1327C64.1382 0.545898 66.4374 0.936628 67.9592 1.60137C71.0816 3.00698 73.2639 6.40683 73.2639 10.5095C73.2639 14.6248 71.0485 18.0754 67.3622 19.2907L63.7368 14.7288Z" fill="white"/>
<path d="M35.0346 16.6825C30.3142 14.7695 28.1675 12.2678 28.1675 8.51779C28.1675 3.59562 32.9285 0.000405508 38.2332 0.000405508C40.0091 -0.0148177 41.7645 0.398746 43.3447 1.21319C46.4264 2.81416 47.9076 5.12048 47.9482 8.98717H40.6543C40.3418 6.91681 39.4831 6.17341 38.0401 6.17341C36.6732 6.17341 35.5046 7.15024 35.5046 8.43914C35.5046 9.87773 36.597 10.6592 38.8073 11.6766L37.1077 17.5096C36.4167 17.2229 35.7053 16.954 35.0346 16.6825Z" fill="white"/>
<path d="M106.488 24.3269C105.68 22.4215 103.48 21.5284 101.572 22.3352C99.6642 23.142 98.7699 25.3393 99.5778 27.2447C99.9589 28.1429 100.673 28.8558 101.572 29.2364C103.483 30.0407 105.683 29.1476 106.488 27.2396C106.882 26.3085 106.882 25.2581 106.488 24.3269ZM105.739 26.9275C105.106 28.4194 103.384 29.1172 101.89 28.4879C100.396 27.8562 99.6972 26.1359 100.327 24.6441C100.625 23.9413 101.186 23.3805 101.89 23.0837C103.386 22.4545 105.109 23.1547 105.739 24.6491C106.046 25.3773 106.046 26.1994 105.739 26.9275Z" fill="white"/>
<path d="M103.059 24.7195C103.453 24.7272 103.801 24.9783 103.933 25.3488H104.901C104.823 24.9555 104.607 24.6028 104.292 24.3542C103.941 24.0548 103.491 23.895 103.031 23.9102C102.02 23.9152 101.197 24.7195 101.172 25.7293C101.151 26.2495 101.355 26.7518 101.728 27.1147C102.48 27.8504 103.687 27.8378 104.424 27.0867C104.655 26.8508 104.82 26.559 104.904 26.2393H103.933C103.796 26.6021 103.451 26.8432 103.065 26.8483C102.478 26.795 102.043 26.2748 102.097 25.6887C102.142 25.1762 102.546 24.7703 103.059 24.7195Z" fill="white"/>
</svg>
