<svg width="24" height="24" viewBox="0 0 24 24" fill="none" xmlns="http://www.w3.org/2000/svg">
<path d="M13.4138 11.5C13.4138 15.0872 10.6414 18 7.2069 18C3.77241 18 1 15.0872 1 11.5C1 7.9128 3.77241 5 7.2069 5C10.6414 5 13.4138 7.9128 13.4138 11.5ZM20.2138 11.5C20.2138 14.872 18.8207 17.6126 17.1103 17.6126C15.4 17.6126 14.0069 14.872 14.0069 11.5C14.0069 8.12803 15.4 5.38741 17.1103 5.38741C18.8207 5.38741 20.2138 8.11369 20.2138 11.5ZM23 11.5C23 14.5276 22.5172 16.9812 21.9103 16.9812C21.3034 16.9812 20.8207 14.5276 20.8207 11.5C20.8207 8.47241 21.3034 6.01876 21.9103 6.01876C22.5172 6.01876 23 8.47241 23 11.5Z" fill="white"/>
</svg>
