<svg width="24" height="24" viewBox="0 0 24 24" fill="none" xmlns="http://www.w3.org/2000/svg">
<path d="M7.42051 4.94848C7.94698 4.66132 8.49737 4.58953 9.04777 4.58953C9.76567 4.58953 10.4357 4.82883 11.01 5.2835C11.6322 5.78603 12.039 6.57573 12.039 7.5808C12.039 8.75338 11.2254 9.37556 10.7468 9.73451L10.6511 9.8063C10.1486 10.2131 9.95711 10.4285 9.95711 10.8592C9.95711 11.3618 9.5503 11.7686 9.04777 11.7686C8.54523 11.7686 8.13842 11.3618 8.13842 10.8592C8.13842 9.49521 8.99991 8.82517 9.52637 8.39442C10.1486 7.91582 10.2203 7.79617 10.2203 7.5808C10.2203 7.10219 10.0528 6.83896 9.83746 6.67145C9.59816 6.48001 9.311 6.38429 9.02384 6.38429C8.66488 6.38429 8.42558 6.43215 8.25807 6.5518C8.09056 6.64752 7.89912 6.81503 7.73161 7.12612C7.4923 7.55687 6.94191 7.72438 6.51117 7.48508C6.08042 7.24578 5.91291 6.69538 6.15221 6.26464C6.46331 5.69031 6.89405 5.23564 7.42051 4.97241V4.94848ZM9.04777 15.3581C9.71781 15.3581 10.2443 14.8316 10.2443 14.1616C10.2443 13.4916 9.71781 12.9651 9.04777 12.9651C8.37772 12.9651 7.85126 13.4916 7.85126 14.1616C7.85126 14.8316 8.37772 15.3581 9.04777 15.3581ZM9.04777 1C4.09422 1 0.0739505 5.02027 0.0739505 9.97381C0.0739505 11.29 0.361113 12.5822 0.911507 13.7787L0.0500204 17.1768C-0.165351 17.9665 0.337182 18.7801 1.12688 18.9955C1.36618 19.0673 1.60548 19.0673 1.84478 18.9955C2.75413 18.7801 4.11815 18.4451 5.33859 18.1579C9.86139 20.192 15.1739 18.1819 17.208 13.6591C19.242 9.13626 17.2319 3.82376 12.7091 1.7897C11.5844 1.26323 10.3161 1 9.04777 1ZM1.86871 9.97381C1.86871 6.00141 5.07536 2.79476 9.04777 2.79476C13.0202 2.79476 16.2268 6.00141 16.2268 9.97381C16.2268 13.9462 13.0202 17.1529 9.04777 17.1529C7.94698 17.1529 6.84619 16.8896 5.86505 16.411L5.57789 16.2675L5.2668 16.3392L1.9405 17.1289C2.17981 16.1957 2.4909 14.9513 2.77806 13.8984L2.87378 13.5633L2.70627 13.2522C2.17981 12.2472 1.91657 11.0985 1.91657 9.97381H1.86871ZM15.0303 22.5372C12.7569 22.5372 10.5793 21.6757 8.92811 20.1441H9.04777C9.90925 20.1441 10.7468 20.0484 11.5365 19.833C12.5655 20.4074 13.762 20.7424 15.0303 20.7424C16.179 20.7424 17.2558 20.4792 18.213 20.0006L18.5002 19.857L18.8113 19.9288C19.9121 20.192 21.1564 20.4552 22.0897 20.6706C21.8504 19.6177 21.5872 18.5647 21.3239 17.4879L21.2522 17.1529L21.3957 16.8418C21.9222 15.8367 22.1854 14.6881 22.1854 13.5633C22.1854 11.1225 20.9411 8.8491 18.907 7.53294C18.6916 6.67145 18.3805 5.85783 17.9498 5.09206C22.6401 6.71931 25.1288 11.8164 23.5016 16.5068C23.4059 16.7939 23.2862 17.0811 23.1426 17.3682C23.4537 18.5647 23.7648 19.8809 23.9563 20.7185C24.1477 21.5082 23.6452 22.3218 22.8555 22.5132C22.6401 22.5611 22.4247 22.5611 22.2094 22.5132C21.3479 22.3218 19.9599 22.0346 18.7156 21.7475C17.543 22.2739 16.2986 22.5372 15.0303 22.5372V22.5372Z" fill="white"/>
</svg>