<svg width="24" height="24" viewBox="0 0 24 24" fill="none" xmlns="http://www.w3.org/2000/svg">
<path d="M7.23556 20.6885C15.9127 20.6885 20.66 13.4978 20.66 7.26398C20.66 7.06184 20.6556 6.85519 20.6466 6.65305C21.57 5.98519 22.3671 5.15794 23 4.21019C22.1399 4.59286 21.2268 4.84278 20.2917 4.9514C21.2763 4.36124 22.0134 3.43411 22.3666 2.34189C21.4404 2.89081 20.4274 3.27803 19.3712 3.48695C18.6596 2.73078 17.7186 2.2301 16.6939 2.06233C15.6692 1.89456 14.6176 2.06904 13.702 2.55879C12.7864 3.04854 12.0576 3.82629 11.6283 4.77179C11.199 5.71729 11.0932 6.77788 11.3271 7.78958C9.45154 7.69546 7.61679 7.20825 5.94166 6.35955C4.26653 5.51084 2.78846 4.31958 1.60326 2.86298C1.00088 3.90156 0.816554 5.13053 1.08774 6.30012C1.35892 7.46972 2.06527 8.49218 3.06323 9.15972C2.31402 9.13593 1.58123 8.93419 0.925394 8.57121V8.62961C0.924718 9.71955 1.30151 10.776 1.99172 11.6195C2.68192 12.463 3.64294 13.0415 4.71142 13.2566C4.01739 13.4465 3.28899 13.4741 2.58256 13.3375C2.88406 14.2748 3.47068 15.0946 4.26054 15.6825C5.05039 16.2703 6.00408 16.5969 6.98853 16.6168C5.31725 17.9296 3.25275 18.6416 1.12754 18.6382C0.750651 18.6377 0.374134 18.6145 0 18.569C2.15899 19.9541 4.67048 20.6898 7.23556 20.6885Z" fill="white"/>
</svg>
