<svg width="1023" height="245" viewBox="0 0 1023 245" fill="none" xmlns="http://www.w3.org/2000/svg">
<path d="M220.32 0.0766602C216.05 0.0766602 211.823 0.906937 207.884 2.55055C203.936 4.19415 200.361 6.60026 197.336 9.63331C194.321 12.6748 191.932 16.2755 190.297 20.249C188.67 24.2225 187.831 28.4755 187.84 32.7709V240.713C187.84 243.11 190.229 244.754 192.415 243.797C213.356 234.647 231.35 219.736 244.294 200.724C258.17 180.348 265.6 156.22 265.6 131.506V3.49096C265.6 1.61013 264.083 0.0766602 262.211 0.0766602H220.32Z" fill="white"/>
<path d="M77.7515 3.46554C77.7515 1.59319 76.2351 0.0766602 74.3629 0.0766602H3.38013C1.50792 0.0766602 0 1.59319 0 3.46554V153.017C0 153.796 0.262578 154.55 0.753925 155.152L71.7368 242.814C73.7445 245.296 77.76 243.873 77.76 240.679V3.46554H77.7515Z" fill="white"/>
<path d="M171.68 32.771V87.0524C171.68 88.4758 170.79 89.7551 169.452 90.238C168.249 90.6701 167.045 91.1191 165.842 91.5766C154.354 96.033 143.518 101.997 133.647 109.309C118.88 120.23 106.417 134.133 97.0632 149.891C96.182 151.373 93.9199 150.755 93.9199 149.027V3.49102C93.9199 1.60172 95.4365 0.0767231 97.3089 0.0767231H139.205C143.467 0.0682509 147.694 0.915472 151.643 2.55061C155.582 4.19422 159.166 6.60033 162.182 9.64185C165.198 12.6749 167.596 16.2841 169.223 20.2491C170.858 24.2225 171.688 28.4756 171.68 32.771Z" fill="white"/>
<path d="M171.68 111.127C171.68 108.695 169.189 107.035 166.961 108.009C158.615 111.652 150.66 116.235 143.255 121.717C122.26 137.247 106.815 159.122 99.2067 184.106C95.6737 195.679 93.9199 207.642 93.9199 219.588V232.118C93.9199 234.338 96.0126 235.948 98.1561 235.389C109.221 232.533 120.828 231.008 132.791 231.008C144.755 231.008 156.37 232.533 167.435 235.397C169.587 235.956 171.68 234.347 171.68 232.127V111.127Z" fill="url(#paint0_linear_1821_9053)"/>
<path d="M439.808 96.7822H418.518L404.281 35.3472H404.025L389.788 96.7822H367.856L343.359 1.87225H367.985L380.682 63.5637H380.939L394.919 1.87225H413.516L427.239 63.8202H427.496L440.45 1.87225H464.947L439.808 96.7822Z" fill="white"/>
<path d="M528.491 96.7822H475.777V1.87225H528.491V23.1629H498.992V37.9124H527.593V59.203H498.992V75.4916H528.491V96.7822Z" fill="white"/>
<path d="M596.508 96.7822H544.179V1.87225H568.42V75.4916H596.508V96.7822Z" fill="white"/>
<path d="M659.008 96.7822H606.679V1.87225H630.92V75.4916H659.008V96.7822Z" fill="white"/>
<path d="M701.244 96.7822H667.256V1.87225H699.576C711.376 1.87225 720.739 3.92436 727.408 7.6438C740.875 15.3392 749.34 29.9605 749.34 49.3272C749.34 80.6219 730.871 96.7822 701.244 96.7822ZM691.496 75.4916H702.398C716.378 75.4916 725.099 66.7701 725.099 49.4555C725.099 32.5256 716.506 23.1629 702.526 23.1629H691.496V75.4916Z" fill="white"/>
<path d="M810.799 98.5778C784.378 98.5778 759.624 79.5958 759.624 51.5076C759.624 22.1368 780.787 0.0766602 809.645 0.0766602C837.348 0.0766602 859.793 21.4955 859.793 48.6859C859.793 76.7742 837.989 98.5778 810.799 98.5778ZM810.029 77.2872C825.035 77.2872 835.552 64.5898 835.552 49.4555C835.552 34.5777 824.907 21.3673 809.645 21.3673C794.51 21.3673 783.865 34.0647 783.865 49.0707C783.865 64.718 794.51 77.2872 810.029 77.2872Z" fill="white"/>
<path d="M952.854 96.7822H931.82L895.395 38.8102L896.036 96.7822H872.822V1.87225H893.728L930.666 61.8964L929.64 1.87225H952.854V96.7822Z" fill="white"/>
<path d="M1022.86 96.7822H970.142V1.87225H1022.86V23.1629H993.356V37.9124H1021.96V59.203H993.356V75.4916H1022.86V96.7822Z" fill="white"/>
<path d="M411.079 174.562H387.095C386.069 167.764 383.247 165.327 378.502 165.327C374.013 165.327 370.165 168.533 370.165 172.766C370.165 178.409 375.295 180.974 385.684 185.463C406.59 194.441 411.848 202.008 411.848 214.449C411.848 232.79 399.279 243.564 378.758 243.564C358.109 243.564 344.514 232.79 344.514 212.397V210.345H368.626C368.754 218.169 372.602 223.299 378.63 223.299C383.632 223.299 387.736 219.323 387.736 214.193C387.736 206.626 377.219 203.291 368.626 199.828C353.107 193.544 346.053 185.335 346.053 173.022C346.053 156.862 361.7 145.062 379.143 145.062C385.428 145.062 390.943 146.473 395.945 149.038C406.077 154.297 410.951 161.864 411.079 174.562Z" fill="white"/>
<path d="M448.048 241.768H426.757V186.746H416.24V170.586H426.757V146.858H448.048V170.586H458.308V186.746H448.048V241.768Z" fill="white"/>
<path d="M533.414 241.768H513.277V234.201H513.021C509.943 240.742 504.299 244.077 494.68 244.077C479.674 244.077 467.233 235.099 467.233 214.834V170.586H488.524V210.473C488.524 219.836 491.859 224.197 499.939 224.197C508.019 224.197 512.123 218.81 512.123 210.089V170.586H533.414V241.768Z" fill="white"/>
<path d="M622.91 241.768H602.645V234.073H602.389C598.413 240.614 591.23 244.077 581.098 244.077C559.551 244.077 545.443 227.532 545.443 205.984C545.443 184.694 559.936 168.149 580.713 168.149C588.922 168.149 595.591 170.586 601.619 176.614V146.858H622.91V241.768ZM584.561 224.197C594.95 224.197 602.774 216.373 602.774 205.856C602.774 195.98 595.206 188.028 584.689 188.028C574.685 188.028 566.733 195.467 566.733 205.856C566.733 216.63 574.301 224.197 584.561 224.197Z" fill="white"/>
<path d="M659.622 163.018H638.332V146.858H659.622V163.018ZM659.622 241.768H638.332V170.586H659.622V241.768Z" fill="white"/>
<path d="M748.393 205.856C748.393 228.173 731.463 243.948 710.044 243.948C688.369 243.948 671.695 227.916 671.695 206.113C671.695 184.053 688.754 168.277 710.044 168.277C731.463 168.277 748.393 184.309 748.393 205.856ZM710.044 224.069C720.048 224.069 727.102 215.604 727.102 206.113C727.102 196.622 719.92 188.157 709.916 188.157C700.553 188.157 692.986 196.365 692.986 206.113C692.986 215.86 700.425 224.069 710.044 224.069Z" fill="white"/>
<defs>
<linearGradient id="paint0_linear_1821_9053" x1="132.8" y1="119.675" x2="132.8" y2="232.313" gradientUnits="userSpaceOnUse">
<stop offset="0.28" stop-color="#2D6CFF"/>
<stop offset="0.97" stop-color="#6AB8FF"/>
</linearGradient>
</defs>
</svg>
