<svg width="20" height="24" viewBox="0 0 20 24" fill="none" xmlns="http://www.w3.org/2000/svg">
<path d="M19.0306 18.424C18.6827 19.2275 18.271 19.9672 17.794 20.6472C17.1438 21.5743 16.6114 22.216 16.2011 22.5724C15.565 23.1573 14.8836 23.4568 14.1539 23.4739C13.63 23.4739 12.9982 23.3248 12.2628 23.0224C11.525 22.7214 10.8469 22.5724 10.2269 22.5724C9.57671 22.5724 8.87935 22.7214 8.13343 23.0224C7.38638 23.3248 6.78456 23.4824 6.32444 23.498C5.62466 23.5278 4.92716 23.2197 4.23093 22.5724C3.78656 22.1848 3.23075 21.5204 2.5649 20.5791C1.85051 19.5739 1.26317 18.4084 0.803043 17.0795C0.310262 15.6442 0.0632324 14.2543 0.0632324 12.9087C0.0632324 11.3673 0.396296 10.0379 1.06342 8.92385C1.58772 8.029 2.28522 7.32312 3.1582 6.80493C4.03118 6.28674 4.97443 6.02267 5.99024 6.00578C6.54605 6.00578 7.27493 6.1777 8.18071 6.51559C9.08393 6.85462 9.66388 7.02655 9.91815 7.02655C10.1082 7.02655 10.7525 6.82552 11.8447 6.42473C12.8775 6.05305 13.7492 5.89916 14.4633 5.95978C16.3984 6.11595 17.8522 6.87876 18.819 8.25303C17.0884 9.30163 16.2323 10.7703 16.2493 12.6544C16.265 14.122 16.7974 15.3432 17.8437 16.3129C18.3179 16.7629 18.8474 17.1107 19.4366 17.3578C19.3088 17.7283 19.1739 18.0832 19.0306 18.424ZM14.5925 0.960131C14.5925 2.11039 14.1723 3.18439 13.3347 4.17847C12.3238 5.36023 11.1012 6.04311 9.77533 5.93536C9.75843 5.79736 9.74864 5.65213 9.74864 5.49951C9.74864 4.39526 10.2293 3.21349 11.083 2.24724C11.5092 1.75801 12.0513 1.35122 12.7086 1.02671C13.3645 0.707053 13.9849 0.530273 14.5684 0.5C14.5854 0.653772 14.5925 0.807554 14.5925 0.960116V0.960131Z" fill="black"/>
</svg>
