<svg width="24" height="24" viewBox="0 0 24 24" fill="none" xmlns="http://www.w3.org/2000/svg">
<path fill-rule="evenodd" clip-rule="evenodd" d="M23.29 12.2615C23.29 11.446 23.2168 10.6619 23.0809 9.90918H12.25V14.3576H18.4391C18.1725 15.7951 17.3623 17.013 16.1443 17.8285V20.714H19.8609C22.0355 18.7119 23.29 15.7637 23.29 12.2615Z" fill="#4285F4"/>
<path fill-rule="evenodd" clip-rule="evenodd" d="M12.25 23.4996C15.355 23.4996 17.9581 22.4698 19.8609 20.7134L16.1443 17.828C15.1145 18.518 13.7972 18.9257 12.25 18.9257C9.25474 18.9257 6.71951 16.9028 5.81519 14.1846H1.97314V17.1641C3.86542 20.9225 7.75451 23.4996 12.25 23.4996Z" fill="#34A853"/>
<path fill-rule="evenodd" clip-rule="evenodd" d="M5.81523 14.1855C5.58523 13.4955 5.45455 12.7584 5.45455 12.0005C5.45455 11.2425 5.58523 10.5055 5.81523 9.81548V6.83594H1.97318C1.19432 8.38844 0.75 10.1448 0.75 12.0005C0.75 13.8562 1.19432 15.6125 1.97318 17.165L5.81523 14.1855Z" fill="#FBBC05"/>
<path fill-rule="evenodd" clip-rule="evenodd" d="M12.25 5.07386C13.9384 5.07386 15.4543 5.65409 16.6461 6.79364L19.9445 3.49523C17.9529 1.63955 15.3497 0.5 12.25 0.5C7.75451 0.5 3.86542 3.07705 1.97314 6.83545L5.81519 9.815C6.71951 7.09682 9.25474 5.07386 12.25 5.07386Z" fill="#EA4335"/>
</svg>
